<svg xmlns="http://www.w3.org/2000/svg" width="1600" height="1000" viewBox="0 0 1600 1000">
<defs><marker id="a" markerWidth="10" markerHeight="10" refX="9" refY="3" orient="auto"><path d="M0,0 L10,3 L0,6 z" fill="#355070"/></marker></defs>
<rect width="1600" height="1000" fill="#f7f9fc"/><text x="800" y="55" text-anchor="middle" font-family="Arial" font-size="32" font-weight="bold" fill="#152238">Market AI — Runtime Architecture</text>
<text x="800" y="88" text-anchor="middle" font-family="Arial" font-size="16" fill="#52627a">Durable paper-trading platform • LIVE_TRADING_ENABLED=false</text>
<!-- layers -->
<rect x="55" y="125" width="1490" height="130" rx="18" fill="#e8f1ff" stroke="#6c8fc7" stroke-width="2"/><text x="80" y="155" font-family="Arial" font-size="18" font-weight="bold" fill="#254d7d">CLIENT / API LAYER</text>
<rect x="90" y="175" width="250" height="55" rx="10" fill="white" stroke="#4677b8"/><text x="215" y="208" text-anchor="middle" font-family="Arial" font-size="16">Web UI</text>
<rect x="400" y="175" width="330" height="55" rx="10" fill="white" stroke="#4677b8"/><text x="565" y="208" text-anchor="middle" font-family="Arial" font-size="16">FastAPI main.py</text>
<rect x="790" y="175" width="250" height="55" rx="10" fill="white" stroke="#4677b8"/><text x="915" y="208" text-anchor="middle" font-family="Arial" font-size="16">Authentication</text>
<rect x="1100" y="175" width="370" height="55" rx="10" fill="white" stroke="#4677b8"/><text x="1285" y="208" text-anchor="middle" font-family="Arial" font-size="16">REST / WebSocket endpoints</text>
<!-- application -->
<rect x="55" y="290" width="1490" height="260" rx="18" fill="#eef9f1" stroke="#6da77a" stroke-width="2"/><text x="80" y="320" font-family="Arial" font-size="18" font-weight="bold" fill="#28633a">APPLICATION / DOMAIN LAYER</text>
<rect x="90" y="350" width="300" height="130" rx="10" fill="white" stroke="#4d9561"/><text x="240" y="380" text-anchor="middle" font-family="Arial" font-size="17" font-weight="bold">Paper Trading Service</text><text x="240" y="410" text-anchor="middle" font-family="Arial" font-size="14">decisions • approvals</text><text x="240" y="435" text-anchor="middle" font-family="Arial" font-size="14">approve_and_fill()</text><text x="240" y="460" text-anchor="middle" font-family="Arial" font-size="14">exit_position()</text>
<rect x="450" y="350" width="260" height="130" rx="10" fill="white" stroke="#4d9561"/><text x="580" y="380" text-anchor="middle" font-family="Arial" font-size="17" font-weight="bold">Market Domain</text><text x="580" y="410" text-anchor="middle" font-family="Arial" font-size="14">candles • features</text><text x="580" y="435" text-anchor="middle" font-family="Arial" font-size="14">regime • scanner</text><text x="580" y="460" text-anchor="middle" font-family="Arial" font-size="14">Decimal calculations</text>
<rect x="770" y="350" width="300" height="130" rx="10" fill="white" stroke="#4d9561"/><text x="920" y="380" text-anchor="middle" font-family="Arial" font-size="17" font-weight="bold">Scheduler Service</text><text x="920" y="410" text-anchor="middle" font-family="Arial" font-size="14">market updates • decisions</text><text x="920" y="435" text-anchor="middle" font-family="Arial" font-size="14">stop/target • EOD</text><text x="920" y="460" text-anchor="middle" font-family="Arial" font-size="14">alerts • retries</text>
<rect x="1130" y="350" width="340" height="130" rx="10" fill="white" stroke="#4d9561"/><text x="1300" y="380" text-anchor="middle" font-family="Arial" font-size="17" font-weight="bold">Risk / Portfolio / Audit</text><text x="1300" y="410" text-anchor="middle" font-family="Arial" font-size="14">risk rules • P&amp;L</text><text x="1300" y="435" text-anchor="middle" font-family="Arial" font-size="14">ledger • snapshots</text><text x="1300" y="460" text-anchor="middle" font-family="Arial" font-size="14">append-only audit</text>
<!-- persistence -->
<rect x="55" y="585" width="1490" height="250" rx="18" fill="#fff5e8" stroke="#d49a4a" stroke-width="2"/><text x="80" y="615" font-family="Arial" font-size="18" font-weight="bold" fill="#875719">DURABLE PERSISTENCE</text>
<rect x="100" y="650" width="380" height="120" rx="10" fill="white" stroke="#c4812c"/><text x="290" y="685" text-anchor="middle" font-family="Arial" font-size="18" font-weight="bold">PostgreSQL</text><text x="290" y="715" text-anchor="middle" font-family="Arial" font-size="14">orders • trades • positions</text><text x="290" y="740" text-anchor="middle" font-family="Arial" font-size="14">ledger • alerts • JobRuns</text>
<rect x="610" y="650" width="380" height="120" rx="10" fill="white" stroke="#c4812c"/><text x="800" y="685" text-anchor="middle" font-family="Arial" font-size="18" font-weight="bold">Alembic Migrations</text><text x="800" y="715" text-anchor="middle" font-family="Arial" font-size="14">0001_core → 0008_alerts</text><text x="800" y="740" text-anchor="middle" font-family="Arial" font-size="14">schema lifecycle</text>
<rect x="1120" y="650" width="350" height="120" rx="10" fill="white" stroke="#c4812c"/><text x="1295" y="685" text-anchor="middle" font-family="Arial" font-size="18" font-weight="bold">Test PostgreSQL</text><text x="1295" y="715" text-anchor="middle" font-family="Arial" font-size="14">isolated market_ai_test</text><text x="1295" y="740" text-anchor="middle" font-family="Arial" font-size="14">development DB protected</text>
<!-- runtime -->
<rect x="55" y="870" width="1490" height="85" rx="18" fill="#f0eaff" stroke="#8c70bd" stroke-width="2"/><text x="800" y="900" text-anchor="middle" font-family="Arial" font-size="17" font-weight="bold" fill="#553d80">BACKGROUND EXECUTION</text><text x="800" y="930" text-anchor="middle" font-family="Arial" font-size="15">Worker polls durable ScheduledJob rows → run_job() → savepoints/retries → committed financial effects</text>
<!-- arrows -->
<g stroke="#355070" stroke-width="3" fill="none" marker-end="url(#a)"><path d="M340 202 H400"/><path d="M730 202 H790"/><path d="M565 230 V350"/><path d="M240 480 V650"/><path d="M580 480 V650"/><path d="M920 480 V650"/><path d="M1300 480 V650"/><path d="M920 480 V870"/><path d="M480 710 H610"/><path d="M990 710 H1120"/></g>
<text x="800" y="985" text-anchor="middle" font-family="Arial" font-size="13" fill="#68758a">Primary financial path: decision → approval → BUY fill → position → automatic/manual exit → ledger + snapshot + audit</text>
</svg>